{"title":"The Last Ship S02E10 HDTV x265-SSM.mp4","uid":12374505,"size":50746682,"categoryP":"video","categoryS":"hd___tv_shows","magnet":"?xt=urn:btih:90ddd3f6dd486df317d9ca3db16fe7133bb94d04&amp;dn=The+Last+Ship+S02E10+HDTV+x265-SSM.mp4&amp;tr=udp%3A%2F%2Ftracker.openbittorrent.com%3A80&amp;tr=udp%3A%2F%2Fopen.demonii.com%3A1337&amp;tr=udp%3A%2F%2Ftracker.coppersurfer.tk%3A6969&amp;tr=udp%3A%2F%2Fexodus.desync.com%3A6969","seeders":0,"leechers":0,"uploader":"SSM2015","files":1,"time":1441686113,"description":"==\nThe Last Ship S02E10 HDTV x265-SSM.mp4\n==\n\n1. Latest x265 codec used \n2. Video Resolution Downscaled \n3. Ideal for watching on PC/Laptop and Smartphones, not 1080p high-res TVs \n- Comments and ratings are appreciated! \n\n==\n\nFormat                      : MPEG-4 \nFormat profile              : Base Media \nCodec ID                    : isom \nFile size                   : 48.4 MiB \nDuration                    : 42mn 15s \nOverall bit rate mode       : Variable \nOverall bit rate            : 160 Kbps \nWriting application         : Lavf56.40.101 \n\nVideo \nID                          : 1 \nFormat                      : HEVC \nFormat/Info                 : High Efficiency Video Coding \nFormat profile              : Main@L2@Main \nCodec ID                    : hev1 \nCodec ID/Info               : High Efficiency Video Coding \nDuration                    : 42mn 15s \nBit rate                    : 79.6 Kbps \nWidth                       : 416 pixels \nHeight                      : 240 pixels \nDisplay aspect ratio        : 1.733 \nFrame rate mode             : Constant \nFrame rate                  : 23.976 fps \nColor space                 : YUV \nChroma subsampling          : 4:2:0 \nBit depth                   : 8 bits \nScan type                   : Progressive \nBits/(Pixel*Frame)          : 0.033 \nStream size                 : 24.0 MiB (50%) \nWriting library             : x265 1.7:[Windows][GCC 4.9.2][64 bit] \nEncoding settings           : wpp / ctu=32 / min-cu-size=8 / max-tu-size=32 / tu-intra-depth=1 / tu-inter-depth=1 / me=1 / subme=1 / merange=57 / no-rect / no-amp / max-merge=2 / temporal-mvp / early-skip / rdpenalty=0 / no-tskip / no-tskip-fast / strong-intra-smoothing / no-lossless / no-cu-lossless / no-constrained-intra / fast-intra / open-gop / no-temporal-layers / interlace=0 / keyint=250 / min-keyint=23 / scenecut=40 / rc-lookahead=15 / lookahead-slices=0 / bframes=4 / bframe-bias=0 / b-adapt=0 / ref=1 / weightp / no-weightb / aq-mode=1 / aq-strength=1.00 / cbqpoffs=0 / crqpoffs=0 / rd=2 / psy-rd=0.30 / rdoq-level=0 / psy-rdoq=0.00 / signhide / deblock / sao / no-sao-non-deblock / b-pyramid / no-cutree / rc=crf / crf=28.0 / qcomp=0.60 / qpmin=0 / qpmax=51 / qpstep=4 / ipratio=1.40 / pbratio=1.30 \n\nAudio \nID                          : 2 \nFormat                      : AAC \nFormat/Info                 : Advanced Audio Codec \nFormat profile              : LC \nCodec ID                    : 40 \nDuration                    : 42mn 15s \nDuration_LastFrame          : 10ms \nBit rate mode               : Variable \nBit rate                    : 76.0 Kbps \nMaximum bit rate            : 128 Kbps \nChannel(s)                  : 2 channels \nChannel positions           : Front: L R \nSampling rate               : 22.05 KHz \nCompression mode            : Lossy \nStream size                 : 23.0 MiB (47%)","torrent":{"xt":"urn:btih:90ddd3f6dd486df317d9ca3db16fe7133bb94d04","amp;dn":"The+Last+Ship+S02E10+HDTV+x265-SSM.mp4","amp;tr":["udp%3A%2F%2Ftracker.openbittorrent.com%3A80","udp%3A%2F%2Fopen.demonii.com%3A1337","udp%3A%2F%2Ftracker.coppersurfer.tk%3A6969","udp%3A%2F%2Fexodus.desync.com%3A6969"],"infoHash":"90ddd3f6dd486df317d9ca3db16fe7133bb94d04","infoHashBuffer":{"type":"Buffer","data":[144,221,211,246,221,72,109,243,23,217,202,61,177,111,231,19,59,185,77,4]},"announce":[],"urlList":[]}}